# xmcd CD database file
#
# Track frame offsets:
#	150
#	38157
#	71922
#	111733
#	144697
#
# Disc length: 2589 seconds
#
# Revision: 1
# Processed by: cddbd v1.5.2PL0 Copyright (c) Steve Scherf et al.
# Submitted via: CDex 1.51
#
DISCID=500a1b05
DTITLE=Sphinx - Bohemian Sketches
DYEAR=2007
DGENRE=Jazz
TTITLE0=Selvportrett 1881-82
TTITLE1=Livets Dans
TTITLE2=Madonna
TTITLE3=Melankoli
TTITLE4=Solen
EXTD=YEAR: 2007
EXTT0=
EXTT1=
EXTT2=
EXTT3=
EXTT4=
PLAYORDER=
